
<svg xmlns="http://www.w3.org/2000/svg" viewBox="0 0 24 24" fill="none" stroke="#8B5CF6" stroke-width="1.5" stroke-linecap="round" stroke-linejoin="round">
  <path d="M9.5 2a2.5 2.5 0 1 1 0 5 2.5 2.5 0 0 1 0-5Z"/>
  <path d="M14.5 2a2.5 2.5 0 1 0 0 5 2.5 2.5 0 0 0 0-5Z"/>
  <path d="M3 10.5a7 7 0 0 1 14 0 2.5 2.5,0 0 0 5 0 9.5 9.5,0 0 0-7-9.17A7 7 0 0 0 7 9"/>
  <path d="M3 14a4.97 4.96,0 0 0 1.9 4 5 5,0 0 0 8.1-4 7 7 0 0 1 7-7 2.5 2.5,0 0 0 0-5 9.5 9.5,0 0 0-9.5 9.5 2.5 2.5,0 0 1-5 0 6.76 6.75,0 0 0-2.5 2.5"/>
  <path d="M7 22a6 6 0 0 0 3.84-1.4 3 3,0 0 1 4.033.11A5 5,0 0 0 21 22"/>
  <path d="M11 13v3"/>
  <path d="M8 13v3"/>
  <path d="M16 13v3"/>
  <path d="M13 13v3"/>
</svg>
